<svg width="0" height="0" class="hidden">
  <symbol xmlns="http://www.w3.org/2000/svg" viewBox="0 0 16 16" id="twitter">
    <path d="M14.355 4.742c.012.14.012.285.012.426 0 4.336-3.3 9.328-9.332 9.328A9.266 9.266 0 010 13.027c.266.028.52.04.793.04 1.531 0 2.941-.52 4.07-1.403a3.286 3.286 0 01-3.066-2.273c.203.03.406.05.621.05.293 0 .586-.039.86-.113a3.278 3.278 0 01-2.63-3.215V6.07c.438.246.946.399 1.485.418a3.278 3.278 0 01-1.461-2.73c0-.61.16-1.168.445-1.656a9.315 9.315 0 006.762 3.43 3.676 3.676 0 01-.082-.75 3.277 3.277 0 013.277-3.278c.946 0 1.797.394 2.399 1.035a6.554 6.554 0 002.082-.793 3.285 3.285 0 01-1.442 1.809A6.67 6.67 0 0016 3.047a7.059 7.059 0 01-1.645 1.695zm0 0"></path>
  </symbol>
  <symbol xmlns="http://www.w3.org/2000/svg" viewBox="0 0 12 16" id="pinterest">
    <path d="M6.375.203C3.168.203 0 2.34 0 5.801 0 8 1.238 9.25 1.988 9.25c.309 0 .489-.863.489-1.105 0-.293-.743-.91-.743-2.122 0-2.511 1.914-4.293 4.387-4.293 2.129 0 3.703 1.211 3.703 3.434 0 1.656-.664 4.77-2.82 4.77-.777 0-1.445-.563-1.445-1.368 0-1.183.824-2.324.824-3.543 0-2.07-2.934-1.695-2.934.805 0 .524.067 1.106.301 1.586-.43 1.856-1.313 4.621-1.313 6.531 0 .594.086 1.172.141 1.766.106.117.055.105.215.047 1.574-2.156 1.52-2.578 2.23-5.403.387.73 1.38 1.125 2.168 1.125C10.508 11.48 12 8.246 12 5.332 12 2.227 9.32.203 6.375.203zm0 0"></path>
  </symbol>
  <symbol xmlns="http://www.w3.org/2000/svg" viewBox="0 0 14 16" id="linkedin">
    <path d="M3.133 14H.23V4.652h2.903zM1.68 3.379c-.926 0-1.68-.77-1.68-1.7a1.682 1.682 0 013.363 0c0 .93-.754 1.7-1.683 1.7zM13.996 14h-2.894V9.45c0-1.083-.024-2.473-1.512-2.473-1.508 0-1.738 1.175-1.738 2.394V14H4.953V4.652h2.781V5.93h.043c.387-.735 1.332-1.512 2.746-1.512 2.938 0 3.477 1.934 3.477 4.45V14zm0 0"></path>
  </symbol>
  <symbol xmlns="http://www.w3.org/2000/svg" viewBox="0 0 15 15" id="google">
    <path d="M15 7.672c0 4.144-2.977 7.094-7.379 7.094C3.406 14.766 0 11.52 0 7.5S3.406.234 7.621.234c2.055 0 3.781.72 5.113 1.903L10.66 4.039C7.945 1.54 2.898 3.414 2.898 7.5c0 2.535 2.125 4.586 4.723 4.586 3.02 0 4.152-2.059 4.328-3.129H7.621v-2.5h7.258c.07.371.121.73.121 1.215zm0 0"></path>
  </symbol>
  <symbol xmlns="http://www.w3.org/2000/svg" viewBox="0 0 11 17" id="facebook">
    <path d="M9.594 9.563l.492-3.079H7.027V4.488c0-.84.426-1.66 1.797-1.66h1.39V.207S8.955 0 7.747 0c-2.516 0-4.16 1.473-4.16 4.14v2.344h-2.8v3.079h2.8V17h3.441V9.562zm0 0"></path>
  </symbol>
</svg>